# xmcd
#
# Track frame offsets: 
#        150
#        15575
#        30753
#        47967
#        63762
#        80848
#        101760
#        121485
#        134951
#        149291
#
# Disc length: 2218 seconds
#
# Revision: 0
# Processed by: cddbd v1.5.2PL0 Copyright (c) Steve Scherf et al.
# Submitted via: ExactAudioCopy v0.95a5
#
DISCID=8b08a80a
DTITLE=Wagons - The Curse of Lightning
DYEAR=2007
DGENRE=Country
TTITLE0=Draw Blood
TTITLE1=Snake Bite
TTITLE2=Redwoods
TTITLE3=Love You Till I Die
TTITLE4=Only Child
TTITLE5=Pamela May
TTITLE6=Be Your Man
TTITLE7=Through the Morning, Through the Night
TTITLE8=Sinful Man
TTITLE9=Jail, It's Hell
EXTD=
EXTT0=
EXTT1=
EXTT2=
EXTT3=
EXTT4=
EXTT5=
EXTT6=
EXTT7=
EXTT8=
EXTT9=
PLAYORDER=
